<?xml version="1.0" encoding="UTF-8" standalone="no"?>
<svg
   xmlns:dc="http://purl.org/dc/elements/1.1/"
   xmlns:cc="http://creativecommons.org/ns#"
   xmlns:rdf="http://www.w3.org/1999/02/22-rdf-syntax-ns#"
   xmlns:svg="http://www.w3.org/2000/svg"
   xmlns="http://www.w3.org/2000/svg"
   viewBox="0 0 575.26666 155.18668"
   height="155.18668"
   width="575.26666"
   xml:space="preserve"
   id="svg2"
   version="1.1"><metadata
     id="metadata8"><rdf:RDF><cc:Work
         rdf:about=""><dc:format>image/svg+xml</dc:format><dc:type
           rdf:resource="http://purl.org/dc/dcmitype/StillImage" /></cc:Work></rdf:RDF></metadata><defs
     id="defs6"><clipPath
       id="clipPath18"
       clipPathUnits="userSpaceOnUse"><path
         id="path16"
         d="M 0,116.39 H 431.45 V 0 H 0 Z" /></clipPath></defs><g
     transform="matrix(1.3333333,0,0,-1.3333333,0,155.18667)"
     id="g10"><g
       id="g12"><g
         clip-path="url(#clipPath18)"
         id="g14"><g
           transform="translate(288.31,65.31)"
           id="g20"><path
             id="path22"
             style="fill:#482711;fill-opacity:1;fill-rule:evenodd;stroke:none"
             d="m 0,0 c 4.13,0.12 6.93,-3.96 6.3,-8.87 -0.6,-4.64 -4.09,-8.32 -7.83,-8.44 -3.74,-0.11 -6.6,3.37 -6.37,8.01 0.23,4.89 3.78,9.17 7.9,9.29 z" /></g><g
           transform="translate(371.6,33.33)"
           id="g24"><path
             id="path26"
             style="fill:#ff6816;fill-opacity:1;fill-rule:nonzero;stroke:none"
             d="m 0,0 c -5.06,0 -7.18,-3.25 -7.56,-7.26 h 5.59 c 6.8,0 8.01,1.06 8.01,2.87 0,2.12 -1.89,4.38 -6.05,4.38 z m -0.99,-16.47 h -6.2 c 0.83,-4.16 4.23,-6.12 10.2,-6.12 6.65,0 10.81,1.06 13.15,2.65 h 0.53 v -3.33 c 0,-5.29 -4.31,-10.05 -16.17,-10.05 -14.36,0 -21.92,9.67 -21.92,21.16 0,12.62 8.54,22.9 21.39,22.9 10.88,0 19.35,-6.12 19.35,-16.7 0,-8.31 -6.27,-10.51 -20.33,-10.51 m -26.15,11.33 c -2.72,-7.94 -9.6,-22.07 -14.59,-27.59 h -3.85 c -4.76,0 -7.03,2.27 -9.45,6.05 -5.59,8.69 -11.41,23.96 -13.23,36.13 h 7.48 c 4.69,0 7.63,-3.33 8.16,-5.97 1.28,-6.65 4.99,-16.48 6.88,-20.03 2.65,4.91 6.35,16.7 7.86,26 H -31 c 3.63,0 5.82,-2.19 5.82,-5.67 0,-3.02 -0.98,-6.05 -1.97,-8.92 z m -50.48,-27.58 c -7.63,0 -13.6,3.78 -13.6,13.6 V 8.16 h 3.55 c 8.16,0 10.81,-2.34 10.81,-9.9 v -15.27 c 0,-3.7 1.74,-4.84 5.74,-4.84 h 1.74 v -4.23 c 0,-4.99 -3.78,-6.65 -8.24,-6.65 z m -30.46,0 h -6.05 c -13.23,0 -18.9,6.65 -18.9,19.8 v 32.95 h 6.05 c 5.67,0 8.31,-2.95 8.31,-8.84 v -23.13 c 0,-6.8 1.81,-8.84 8.31,-8.84 h 2.27 c 4.16,0 8.92,0.68 11.03,1.59 h 0.38 v -4.91 c 0,-5.29 -3.17,-8.62 -11.41,-8.62 z" /></g><g
           transform="translate(44.4391,0.8774)"
           id="g28"><path
             id="path30"
             style="fill:#482711;fill-opacity:1;fill-rule:nonzero;stroke:none"
             d="m 0,0 c -3.87,-1.76 -10.7,-0.78 -10.71,-0.75 0,0 -7.32,0.85 -9.41,13.75 -2.83,15.09 -4.28,23.96 -4.28,23.96 0,0 -16.14,-0.35 8.98,20.82 19.24,16.21 25.42,16.02 27,16.04 v -46 C -1.05,27.8 5.76,2.64 0,0.01 Z m 47.57,36.95 c 0,0 -1.45,-8.87 -4.28,-23.96 C 41.2,0.09 33.88,-0.76 33.88,-0.76 33.86,-0.79 27.03,-1.77 23.17,-0.01 17.4,2.62 24.2,27.81 11.58,27.82 v 46 c 1.59,-0.02 7.77,0.15 27.01,-16.06 25.12,-21.17 8.98,-20.82 8.98,-20.82 z m 133.12,-6.6 h -5.14 V 15.31 c 0,-2.8 1.74,-4.46 4.54,-4.46 3.4,0 4.99,0.3 6.5,0.91 h 0.38 V 6.17 c 0,-3.48 -3.17,-6.65 -10.66,-6.65 -7.49,0 -14.74,3.4 -14.74,14.81 V 40.1 c 0,3.78 2.19,6.8 4.99,8.92 1.89,1.44 4.46,2.8 7.48,2.8 h 1.51 V 41.69 h 12.17 v -5.06 c 0,-3.55 -3.78,-6.27 -7.03,-6.27 z M 140.26,17.2 h -2.87 c -5.44,0 -7.63,-1.36 -7.63,-4.16 0,-2.65 1.66,-4.01 5.67,-4.01 2.57,0 4.84,1.28 4.84,5.06 v 3.1 z m -6.35,-18.21 c -8.01,0 -17.76,3.78 -17.76,13.23 0,9.45 6.65,13.91 21.77,13.91 h 2.04 v 1.74 c 0,3.4 -2.65,4.23 -8.31,4.23 -7.78,0 -10.66,-1.81 -13.6,-4.53 h -0.38 v 5.06 c 0,5.14 5.37,10.28 17.23,10.28 11.86,0 18.97,-5.82 18.97,-18.06 v -6.42 c 0,-15.12 -4.84,-19.42 -19.95,-19.42 z m -23.05,36.73 c -2.65,3.4 -9.15,5.37 -14.89,5.37 -8.47,0 -14.66,-5.59 -14.66,-14.06 0,-10.66 6.5,-15.72 14.96,-15.72 5.59,0 11.79,2.12 14.36,4.84 h 0.38 v -5.37 c 0,-6.73 -6.73,-11.87 -16.93,-11.87 -14.29,0 -27.13,10.28 -27.13,26.76 0,15.19 10.66,27.81 28.04,27.81 10.2,0 16.25,-5.06 16.25,-12.4 v -5.37 h -0.38 z" /></g><g
           transform="translate(115.36,71.16)"
           id="g32"><path
             id="path34"
             style="fill:#ff6816;fill-opacity:1;fill-rule:nonzero;stroke:none"
             d="m 0,0 c -1.14,-8.74 -7.78,-15.66 -14.89,-15.87 -7.11,-0.21 -12.54,6.35 -12.13,15.07 0.44,9.21 7.18,17.25 15.03,17.49 7.85,0.23 13.18,-7.45 11.98,-16.68 z m -24.69,20.9 c -1.74,-9.73 -9.17,-16.66 -16.68,-15.96 -7.52,0.7 -12.9,8.81 -11.97,18.62 0.98,10.4 8.59,18.67 16.95,17.89 8.36,-0.77 13.55,-10.23 11.71,-20.55 z M -71.97,6.48 C -79.6,6.25 -86.75,13.81 -88,23.87 c -1.32,10.68 4.4,21.1 12.89,21.36 8.5,0.25 15.79,-9.78 16.23,-20.48 0.41,-10.08 -5.46,-18.03 -13.09,-18.26 z m -26.45,-18.99 c -7.26,-0.22 -14.61,6.59 -16.49,15.65 -1.99,9.58 2.83,17.95 10.87,18.19 8.04,0.24 15.58,-7.77 16.77,-17.37 1.13,-9.08 -3.89,-16.26 -11.16,-16.47 z" /></g><g
           transform="translate(11.08,59.95)"
           id="g36"><path
             id="path38"
             style="fill:#b05019;fill-opacity:1;fill-rule:evenodd;stroke:none"
             d="m 0,0 c -5.01,2.37 -9.27,7.77 -10.63,14.35 -1.99,9.58 2.83,17.95 10.87,18.19 1.99,0.06 3.95,-0.39 5.79,-1.24 0,0 -11.6,3.74 -15.23,-7.4 0,0 -4.77,-13.58 9.2,-23.9 m 26.21,19.18 c -5.03,2.66 -9.02,8.63 -9.92,15.9 -1.33,10.68 4.39,21.1 12.88,21.36 2.32,0.07 4.54,-0.63 6.56,-1.89 0,0 -13.69,6.17 -18.09,-11.92 0,0 -3.5,-13.76 8.56,-23.45 z M 58.88,17.3 c -5.31,2.68 -8.7,9.52 -7.95,17.46 0.98,10.4 8.59,18.67 16.95,17.89 1.85,-0.17 3.55,-0.77 5.05,-1.71 0,0 -13.14,5.14 -19.34,-9.83 0,0 -6.37,-13.75 5.29,-23.81 M 83.89,-3.34 c -4.2,2.32 -6.92,7.47 -6.62,13.74 0.44,9.21 7.18,17.25 15.03,17.49 2.13,0.06 4.08,-0.46 5.76,-1.43 0,0 -11.83,4.41 -18.16,-9.48 0,0 -5.69,-12.18 3.99,-20.31 z" /></g><g
           transform="translate(417.32,33.3)"
           id="g40"><path
             id="path42"
             style="fill:#482711;fill-opacity:1;fill-rule:nonzero;stroke:none"
             d="m 0,0 c -5.37,0 -7.1,-1.44 -7.1,-3.17 0,-1.59 0.91,-2.12 9.6,-3.55 6.95,-1.13 11.64,-4.91 11.64,-11.94 0,-8.92 -6.95,-14.59 -18.37,-14.59 -11.42,0 -15.42,4.16 -15.42,10.2 v 4.16 h 0.38 c 2.72,-2.04 6.88,-3.63 12.77,-3.63 5.22,0 6.88,1.21 6.88,3.25 0,1.89 -0.98,2.65 -9.6,3.85 -7.48,1.06 -11.41,4.46 -11.41,11.11 0,9.98 9.45,15.04 18.97,15.04 9.52,0 14.81,-3.7 14.81,-9.9 V -3.48 H 12.77 C 9.97,-1.44 5.59,0 0,0" /></g></g></g></g></svg>