<svg width="182" height="36" viewBox="0 0 182 36" fill="none" xmlns="http://www.w3.org/2000/svg">
    <g clip-path="url(#clip0_104_9511)">
        <path d="M60.1789 15.733C60.1565 15.7241 60.1345 15.7198 60.1165 15.7109L60.1789 15.733Z" fill="white"/>
        <path d="M55.225 25.7484C55.2207 25.7484 55.216 25.7441 55.2117 25.7441L55.225 25.7484Z" fill="white"/>
        <path d="M60.1789 15.733C60.1565 15.7241 60.1345 15.7198 60.1165 15.7109L60.1789 15.733Z" fill="white"/>
        <path d="M55.225 25.7484C55.2207 25.7484 55.216 25.7441 55.2117 25.7441L55.225 25.7484Z" fill="white"/>
        <path
                d="M53.9117 9.24023C55.4019 9.24023 56.7685 9.60466 58.012 10.3335C59.2555 11.0623 60.2554 12.0423 61.0117 13.2735C61.768 14.5046 62.1459 15.8711 62.1459 17.3725C62.1459 17.6817 62.1291 17.9961 62.0955 18.3164C62.0508 18.7249 61.8631 19.0698 61.5325 19.3515C61.2019 19.6332 60.8296 19.7741 60.4151 19.7741L48.6691 19.7906C48.8594 20.5856 49.2179 21.331 49.7448 22.0263C50.2712 22.7221 50.9125 23.2851 51.6688 23.7157C52.425 24.1463 53.251 24.3618 54.1472 24.3618C55.1105 24.3618 55.9731 24.1297 56.7349 23.666C57.4968 23.2023 58.0904 22.6669 58.5161 22.0594C58.6504 21.8494 58.8548 21.673 59.1294 21.5296C59.404 21.3862 59.6644 21.3141 59.9107 21.3141C60.3699 21.3141 60.7651 21.4795 61.0952 21.8108C61.4258 22.1422 61.5911 22.5342 61.5911 22.9868C61.5911 23.3402 61.4903 23.655 61.2885 23.9308C60.5937 24.9353 59.639 25.805 58.4235 26.5394C57.208 27.2737 55.7992 27.6407 54.1971 27.6407C52.9088 27.6407 51.7131 27.3921 50.6095 26.8953C49.5059 26.3985 48.5456 25.7193 47.7278 24.8581C46.9099 23.9969 46.2742 23.0059 45.8205 21.8851C45.3669 20.7642 45.14 19.5802 45.14 18.3325C45.14 17.0848 45.3643 15.9835 45.8123 14.8958C46.2604 13.808 46.885 12.8395 47.686 11.9893C48.487 11.1391 49.4198 10.4684 50.4838 9.97714C51.5483 9.48587 52.6906 9.24023 53.9117 9.24023ZM58.6839 16.4612C58.4709 15.379 57.9221 14.4571 57.0371 13.6952C56.1521 12.9332 55.1101 12.5523 53.9117 12.5523C52.7134 12.5523 51.6124 12.9443 50.6771 13.7283C49.7417 14.5122 49.1116 15.4286 48.7866 16.4777L58.6839 16.4612Z"
                fill="white"/>
        <path
                d="M89.1683 26.0627C89.1683 26.5085 89.0107 26.8916 88.6845 27.2132C88.3586 27.5343 87.9588 27.69 87.4857 27.69C87.0127 27.69 86.6236 27.5348 86.2977 27.2132C85.9719 26.892 85.8036 26.5085 85.8036 26.0627L85.7933 17.2746C85.7933 16.435 85.7093 15.6476 85.5514 14.912C85.4042 14.1763 85.1098 13.5854 84.6996 13.1293C84.2894 12.6839 83.5744 12.4556 82.7859 12.4556C81.9551 12.4556 81.3663 12.6835 80.7775 13.1293C80.1886 13.5854 79.7367 14.1759 79.4315 14.912C79.1268 15.6476 78.9688 16.4354 78.9688 17.2852L78.9899 26.1144C78.9899 26.5599 78.8216 26.9332 78.485 27.2543C78.1592 27.5653 77.7593 27.7206 77.3074 27.7206C76.8554 27.7206 76.4555 27.5653 76.1194 27.2543C75.7935 26.9332 75.6252 26.5599 75.6252 26.1144L75.6463 17.2852C75.6463 16.4354 75.4888 15.6476 75.1836 14.912C74.8681 14.1763 74.4265 13.5854 73.8377 13.1293C73.2488 12.6839 72.6497 12.4556 71.8293 12.4556C71.0089 12.4556 70.3258 12.6835 69.9156 13.1293C69.495 13.5854 69.211 14.1759 69.0534 14.912C68.8959 15.6476 68.8223 16.4354 68.8223 17.2746L68.8012 26.0627C68.8012 26.5085 68.6437 26.8916 68.3174 27.2132C67.9916 27.5343 67.5917 27.69 67.1186 27.69C66.6456 27.69 66.2565 27.5348 65.9307 27.2132C65.6048 26.892 65.4365 26.5085 65.4365 26.0627L65.4576 17.2436C65.4576 15.8135 65.6888 14.4869 66.1515 13.2642C66.6034 12.0416 67.308 11.0463 68.2545 10.2899C69.2011 9.53349 70.3891 9.16016 71.8293 9.16016C72.9122 9.16016 73.9005 9.42955 74.7837 9.95815C75.667 10.4969 76.4241 11.1189 77.0547 11.8443L77.3069 12.0929L77.5592 11.8443C78.1794 11.1189 78.9365 10.4969 79.8198 9.95815C80.7133 9.42955 81.6913 9.16016 82.785 9.16016C84.2149 9.16016 85.4029 9.53349 86.3494 10.2899C87.2955 11.0463 88.0001 12.0412 88.4628 13.2642C88.9255 14.4869 89.1463 15.8135 89.1463 17.2436L89.1674 26.0627H89.1683Z"
                fill="white"/>
        <path d="M94.7764 24.0898V24.1C94.7975 24.1 94.7975 24.0898 94.8078 24.0898H94.7764Z" fill="white"/>
        <path
                d="M110.481 14.9544C110.039 13.8454 109.429 12.8714 108.631 12.011C107.842 11.1613 106.906 10.4876 105.834 9.99038C104.761 9.49274 103.594 9.24414 102.333 9.24414C102.259 9.24414 102.185 9.24414 102.112 9.25432V9.24414C100.85 9.24414 99.6828 9.49274 98.6106 9.99038C97.8431 10.3425 97.1596 10.7884 96.5394 11.3271C96.2872 11.5346 96.0452 11.7624 95.8137 12.011C95.0144 12.8714 94.4049 13.8454 93.9633 14.9544C93.5216 16.0633 93.3112 17.2241 93.3112 18.4467V34.354C93.3112 34.7998 93.4687 35.1935 93.8053 35.5147C94.1311 35.8464 94.531 36.0017 94.9829 36.0017C95.4349 36.0017 95.8451 35.8464 96.1709 35.5147C96.5075 35.1935 96.6651 34.7994 96.6651 34.354V25.7216C97.3378 26.2709 98.095 26.7062 98.9154 27.0481C99.5881 27.3175 100.272 27.4936 100.965 27.5869C101.102 27.6179 101.239 27.6387 101.386 27.6493C101.659 27.6803 101.933 27.6909 102.217 27.6909H102.227C103.363 27.6909 104.456 27.4732 105.528 27.0481C106.59 26.6129 107.526 26.0117 108.347 25.2243C109.272 24.3228 109.976 23.2762 110.439 22.0947C110.902 20.9132 111.133 19.7008 111.133 18.4467C111.133 17.1927 110.922 16.0633 110.481 14.9544H110.481ZM107.074 21.3587C106.601 22.2708 105.949 23.0064 105.118 23.5766C104.361 24.0946 103.51 24.3746 102.553 24.4162C102.437 24.4264 102.322 24.4264 102.206 24.4264H102.164C102.069 24.4264 101.974 24.4264 101.89 24.4162C100.934 24.3746 100.082 24.095 99.3251 23.5766C98.4944 23.0069 97.8427 22.2708 97.3692 21.3587C96.8854 20.4466 96.6543 19.4725 96.6543 18.4467C96.6543 17.4209 96.8854 16.4464 97.3589 15.5555C97.832 14.654 98.4733 13.9286 99.2937 13.3792C100.103 12.8298 101.039 12.5502 102.08 12.5502H102.164C102.185 12.5502 102.206 12.5502 102.227 12.5604C102.269 12.5502 102.322 12.5502 102.364 12.5502C103.405 12.5502 104.34 12.8302 105.15 13.3792C105.97 13.9286 106.611 14.654 107.085 15.5555C107.558 16.4469 107.79 17.4103 107.79 18.4467C107.79 19.4831 107.558 20.447 107.075 21.3587H107.074Z"
                fill="white"/>
        <path d="M94.7764 24.0898V24.1C94.7975 24.1 94.7975 24.0898 94.8078 24.0898H94.7764Z" fill="white"/>
        <path
                d="M122.616 9.24023C124.106 9.24023 125.472 9.60466 126.716 10.3335C127.96 11.0623 128.959 12.0423 129.716 13.2735C130.472 14.5046 130.85 15.8711 130.85 17.3725C130.85 17.6817 130.833 17.9961 130.8 18.3164C130.755 18.7249 130.567 19.0698 130.236 19.3515C129.906 19.6332 129.534 19.7741 129.119 19.7741L117.373 19.7906C117.563 20.5856 117.922 21.331 118.449 22.0263C118.975 22.7221 119.616 23.2851 120.373 23.7157C121.129 24.1463 121.955 24.3618 122.851 24.3618C123.814 24.3618 124.677 24.1297 125.439 23.666C126.201 23.2023 126.794 22.6669 127.22 22.0594C127.354 21.8494 127.559 21.673 127.833 21.5296C128.108 21.3862 128.368 21.3141 128.615 21.3141C129.074 21.3141 129.469 21.4795 129.799 21.8108C130.13 22.1422 130.295 22.5342 130.295 22.9868C130.295 23.3402 130.194 23.655 129.992 23.9308C129.298 24.9353 128.343 25.805 127.128 26.5394C125.912 27.2737 124.503 27.6407 122.901 27.6407C121.613 27.6407 120.417 27.3921 119.313 26.8953C118.21 26.3985 117.25 25.7193 116.432 24.8581C115.614 23.9969 114.978 23.0059 114.525 21.8851C114.071 20.7642 113.844 19.5802 113.844 18.3325C113.844 17.0848 114.068 15.9835 114.516 14.8958C114.964 13.808 115.589 12.8395 116.39 11.9893C117.191 11.1391 118.124 10.4684 119.188 9.97714C120.252 9.48587 121.395 9.24023 122.616 9.24023ZM127.388 16.4612C127.175 15.379 126.626 14.4571 125.741 13.6952C124.856 12.9332 123.814 12.5523 122.616 12.5523C121.417 12.5523 120.316 12.9443 119.381 13.7283C118.446 14.5122 117.816 15.4286 117.491 16.4777L127.388 16.4612Z"
                fill="white"/>
        <path
                d="M136.48 4.81638C136.48 4.36372 136.643 3.97427 136.968 3.64888C137.293 3.32306 137.69 3.16016 138.161 3.16016C138.631 3.16016 139.015 3.32306 139.345 3.64888C139.676 3.97469 139.841 4.36372 139.841 4.81638V9.20555H142.348C142.785 9.20555 143.161 9.35997 143.474 9.66924C143.788 9.97851 143.945 10.3484 143.945 10.779C143.945 11.2097 143.788 11.5796 143.474 11.8889C143.161 12.1981 142.785 12.3525 142.348 12.3525H139.824L139.808 22.919V22.9521C139.808 23.493 139.869 23.8659 139.992 24.07C140.115 24.2741 140.368 24.3763 140.748 24.3763C141.23 24.3763 141.656 24.2495 142.026 23.9953C142.16 23.9071 142.323 23.8269 142.513 23.7552C142.703 23.6835 142.888 23.6475 143.067 23.6475C143.526 23.6475 143.922 23.8074 144.252 24.1277C144.582 24.448 144.748 24.8345 144.748 25.2871C144.748 25.828 144.523 26.2642 144.075 26.5955C143.65 26.9158 143.162 27.1805 142.614 27.3905C142.065 27.6005 141.476 27.7053 140.849 27.7053C139.438 27.7053 138.351 27.2772 137.589 26.4216C136.827 25.5659 136.446 24.4976 136.446 23.2169V23.068L136.463 12.3687H134.036C133.599 12.3687 133.224 12.2142 132.91 11.905C132.596 11.5957 132.439 11.2258 132.439 10.7952C132.439 10.3646 132.596 9.99463 132.91 9.68536C133.224 9.37609 133.599 9.22167 134.036 9.22167H136.48V4.81596L136.48 4.81638Z"
                fill="white"/>
        <path
                d="M147.729 4.7687C147.729 4.32707 147.891 3.94907 148.216 3.63429C148.541 3.3195 148.939 3.16211 149.41 3.16211C149.88 3.16211 150.264 3.3195 150.594 3.63429C150.925 3.94907 151.09 4.32707 151.09 4.7687V11.9897C151.516 11.0954 152.137 10.4081 152.955 9.92786C153.773 9.44762 154.563 9.2075 155.325 9.2075C157.083 9.2075 158.52 9.56089 159.635 10.2677C160.75 10.9745 161.57 11.957 162.096 13.2157C162.623 14.4744 162.886 15.9266 162.886 17.5714V17.7203L162.869 26.0841V26.1007C162.869 26.5423 162.704 26.9203 162.374 27.2351C162.043 27.5499 161.648 27.7073 161.189 27.7073C160.73 27.7073 160.335 27.5499 160.005 27.2351C159.674 26.9203 159.509 26.5423 159.509 26.1007V26.0841L159.525 17.803V17.7699C159.525 16.0696 159.24 14.7722 158.669 13.8779C158.097 12.9836 156.983 12.5365 155.325 12.5365C153.924 12.5365 152.874 13.0167 152.174 13.9772C151.473 14.9377 151.124 16.1743 151.124 17.6872V26.1172C151.124 26.5588 150.958 26.9368 150.628 27.2516C150.297 27.5664 149.902 27.7238 149.443 27.7238C148.984 27.7238 148.555 27.5609 148.225 27.2351C147.894 26.9093 147.729 26.5368 147.729 26.1172V4.7687Z"
                fill="white"/>
        <path
                d="M182 10.798C182 11.0258 181.958 11.2434 181.863 11.4407L175.681 27.3378L175.397 28.0216L175.365 28.0942L174.072 31.2238L174.061 31.2446L172.505 34.9961C172.253 35.5867 171.654 36.0011 170.96 36.0011C170.539 36.0011 170.161 35.8459 169.867 35.5968C169.509 35.2965 169.288 34.8506 169.288 34.3534C169.288 34.1565 169.319 33.9699 169.393 33.7938L169.435 33.6695L169.446 33.6487L171.012 29.8454L171.023 29.8246C171.138 29.5862 171.243 29.3376 171.349 29.0784L172.158 27.0578L165.093 11.4611C164.998 11.2227 164.945 10.9948 164.945 10.7458C164.945 10.2898 165.114 9.90625 165.44 9.57492C165.765 9.25377 166.165 9.08789 166.628 9.08789C166.953 9.08789 167.259 9.18122 167.542 9.36746C167.826 9.56431 168.026 9.79255 168.152 10.0721L173.872 22.8705L178.761 10.1862C178.877 9.88588 179.087 9.63685 179.371 9.44001C179.655 9.24316 179.97 9.13965 180.318 9.13965C180.781 9.13965 181.17 9.30552 181.506 9.62667C181.832 9.95843 182 10.3419 182 10.7976V10.798Z"
                fill="white"/>
        <path
                d="M22.8429 30.6769C21.5994 30.6769 20.2401 30.458 18.7362 30.0176C17.9623 29.7911 17.2133 29.5157 16.5005 29.1971C15.7873 29.5153 15.0388 29.7906 14.2649 30.0176C11.8988 30.7104 9.8917 30.8555 8.12823 30.4618C5.90376 29.965 4.17473 28.6274 2.99018 26.4867C1.20218 23.2565 0.123521 19.0146 0.0305476 14.8481C-0.0305734 12.1024 -0.048221 9.18539 0.459256 6.35826C0.689966 5.07282 0.99385 4.01944 1.38855 3.13745C2.11598 1.51134 3.14901 0.50717 4.45752 0.152507C5.67262 -0.176702 6.90107 0.0294781 8.01072 0.747713C8.81519 1.26868 9.54736 2.04122 10.249 3.10902C11.3745 4.82252 12.1713 6.95601 12.6473 8.23085C12.7114 8.40267 12.7704 8.56091 12.8242 8.70175C13.1509 9.55702 12.7123 10.5111 11.8446 10.8331C10.9768 11.1551 10.0088 10.7228 9.68208 9.86756C9.62569 9.71993 9.56371 9.55447 9.49656 9.37417C9.04117 8.15449 8.35291 6.31202 7.43093 4.90779C6.88644 4.07926 6.44352 3.69235 6.16762 3.51332C5.79228 3.27023 5.55167 3.28805 5.34722 3.3432C4.98135 3.44247 4.23628 4.31004 3.76539 6.93438C3.31086 9.46666 3.32721 12.0884 3.38704 14.7751C3.46882 18.43 4.39812 22.1208 5.93691 24.9017C6.6596 26.2075 7.59148 26.9487 8.86943 27.2342C9.94765 27.4747 11.2992 27.3831 12.8922 26.9614C12.5604 26.6797 12.2492 26.3861 11.9608 26.0819C11.3018 25.4333 10.7982 24.6752 10.4633 23.828C10.1444 23.0143 9.97908 22.1705 9.97133 21.3173V21.2847V21.2634C9.98467 20.6262 10.0858 19.6505 10.49 18.6209L10.5081 18.5772C10.8158 17.8551 11.2411 17.1988 11.7718 16.6269C12.3486 16.0063 13.0321 15.5091 13.8039 15.1489C13.8392 15.1319 13.8702 15.1179 13.8947 15.1073C13.9283 15.0921 13.9554 15.081 13.9717 15.0742L13.9752 15.073C14.0118 15.0573 14.0505 15.0416 14.0953 15.0246C14.1353 15.0089 14.1728 14.9949 14.2085 14.9822C14.8662 14.7429 15.5742 14.6161 16.4347 14.583L16.5001 14.5804L16.5655 14.583C17.4259 14.6161 18.1336 14.7429 18.7917 14.9822C18.8274 14.9949 18.8649 15.0089 18.9049 15.0246C18.9488 15.0416 18.9875 15.0568 19.025 15.073L19.0284 15.0742C19.0448 15.081 19.0719 15.0925 19.1055 15.1073C19.1304 15.1179 19.1614 15.1324 19.1967 15.1493C19.9681 15.5095 20.6516 16.0063 21.2275 16.6261C21.7587 17.1988 22.1839 17.8547 22.4921 18.5772L22.5102 18.6209C22.9144 19.6505 23.0155 20.6262 23.0289 21.2634V21.3059V21.3173C23.0207 22.1709 22.8558 23.0143 22.5382 23.8241L22.5364 23.828C22.202 24.6752 21.698 25.4333 21.039 26.0819C20.7506 26.3861 20.4394 26.6797 20.1075 26.9614C21.7005 27.3831 23.0521 27.4751 24.1303 27.2342C25.4087 26.9487 26.3406 26.2075 27.0633 24.9017C28.6021 22.1208 29.5318 18.43 29.6131 14.7751C29.673 12.088 29.6893 9.46666 29.2348 6.93438C28.7639 4.31047 28.0188 3.44247 27.653 3.3432C27.4485 3.28805 27.2079 3.27023 26.8326 3.51332C26.5567 3.69193 26.1133 4.07883 25.5693 4.90779C24.6468 6.3116 23.959 8.15449 23.5036 9.37417C23.4365 9.55447 23.3745 9.71993 23.3181 9.86756C22.9914 10.7228 22.0234 11.1551 21.1556 10.8331C20.2879 10.5111 19.8493 9.55702 20.176 8.70175C20.2298 8.56091 20.2887 8.40309 20.3529 8.23085C20.8289 6.95601 21.6257 4.82252 22.7512 3.10902C23.4528 2.04079 24.185 1.26868 24.9895 0.747713C26.0991 0.0294781 27.328 -0.176702 28.5427 0.152507C29.8516 0.506746 30.8842 1.51134 31.6121 3.13745C32.0068 4.01901 32.3106 5.07282 32.5414 6.35826C33.0488 9.18581 33.0312 12.1029 32.9701 14.8481C32.8771 19.0146 31.7984 23.2565 30.0109 26.4862C28.8259 28.6269 27.0973 29.9646 24.8728 30.4614C24.2306 30.6047 23.5557 30.6769 22.8429 30.6769ZM13.3291 21.3084C13.336 21.7615 13.4229 22.1946 13.5943 22.6316C13.7617 23.0559 14.0083 23.4241 14.3471 23.7537L14.3974 23.8051C14.9751 24.4185 15.6874 24.9789 16.5005 25.4668C17.3132 24.9789 18.0255 24.4185 18.6036 23.8051L18.654 23.7537C18.9923 23.4245 19.2385 23.0567 19.4076 22.6295C19.5785 22.1934 19.6646 21.7607 19.6719 21.3084C19.6638 21.0013 19.6147 20.4251 19.3878 19.8367C19.2286 19.4693 19.0198 19.1495 18.7512 18.8597C18.465 18.5517 18.1383 18.3146 17.7526 18.136L17.6338 18.0876C17.33 17.9764 16.9684 17.9137 16.5005 17.8916C16.0326 17.9137 15.6711 17.9764 15.3672 18.0876L15.2484 18.136C14.8632 18.3146 14.5365 18.5517 14.2494 18.8606C13.9812 19.1495 13.7729 19.4693 13.6132 19.8367C13.3864 20.4251 13.3373 21.0008 13.3291 21.3084ZM17.6911 18.108C17.6911 18.108 17.6932 18.1088 17.6941 18.1092L17.6911 18.108Z"
                fill="white"/>
    </g>
    <defs>
        <clipPath id="clip0_104_9511">
            <rect width="182" height="36" fill="white"/>
        </clipPath>
    </defs>
</svg>
